<?xml version="1.0" encoding="UTF-8"?>
<svg xmlns="http://www.w3.org/2000/svg" width="1000" height="1000" viewBox="0 0 1000 1000">
<style>.a{fill:#68A3DE}.b{fill:#86B4E6}.c{fill:none;stroke:#B9D4F0;stroke-width:0.9}.d{fill:#DAE6AF;stroke:#2D6399;stroke-width:0.6;stroke-linejoin:round}.e{fill:#A6C295;stroke:#2D6399;stroke-width:0.6;stroke-linejoin:round}.f{fill:#487D29;stroke:#2D6399;stroke-width:0.6;stroke-linejoin:round}.g{fill:none;stroke:#D7263D;stroke-width:4}.h{fill:#FFFFFF;stroke:#1F2328;stroke-width:2.5}.i{fill:none;stroke:#1F2328;stroke-width:9.4;stroke-linecap:round;stroke-linejoin:round}.j{fill:none;stroke:#FFFFFF;stroke-width:4.4;stroke-linecap:round;stroke-linejoin:round}</style>
<rect class="a" width="1000" height="1000"/>
<path class="d" d="M-10 834l11-7 2-2 1-2 2-2 4 3 2 0 5-1 5 1 0-7-5-15-3-6-7-3-14-3-3-2 0-33 2-3 3-4 3 2 0 5 0 6 0 5 3 4 9 3 4 2 3 4 3 3 5 5 5 3 6 3 2 0 5 0 3 1 2 3 1 3 2 3 3 2 2 1 6 1-1 3 0 2 0 2 4 2 0 5 1 2 6 3 3 2 1 4-3 5-3 3-9 4-2 2 4 3 22-7 9 4 2 4 1 5 2 4 5 2 4-2 3-9 6-3 6 1 11 11 7 3 11-3 5-4-1-5-3-1-2 0-2-2 1-6-3 2-2 1-2-1-1-2-3-8-6-4-7-2-5-6 0-5 2-5 3-4 3-3 4-2 3 0 2 3 4 3 3 1 3 5 3 1 2 2 6 1 2 2 1 3-1 3 1 2 4 1 6 2 2 2 0 4-3 1-3-2-3 1 0 7 2 5 5 8 1 5 2 17 2 5 3 3 17 8 3 2 3 4 1 5 3 3 8 4 6 7 5 3 5 3 4 0 4-2 3-3 3 0 4 6 1 0 2 0 2 0 13-1 4 1 3 6 3 3 2 1 4 0 1-3 1-3 0-4 2-8 11-9 2-4-2-4-3 0-3 1-3-2 0-3 3-2 4-2 3-2-5-1-4-2-2-3 3-5 3-3 2 0 5 2 0-2-1-3-1-8 2-3 5-1 5 1 1 4 0 12 0 1 3 2 2 0 5 0 2 0 3 2 2 4 1 5 2 4 3 4 0 4 0 3 0 5 1 3 5 7 4 5 1 1 2-1 2-2 1 0 4 5-1 4-4 2-5 2 5 3 4 0 2 2-1 7-11 19-1 7 4 25 3 7-359 0-1-1z"/>
<path class="e" d="M801 408l2-7 3-6 1-5-4-6-4-3-5-3-6-1-10-1-10-4-9 0-3-1-7-2-19-10-8-7-5-10-5 5-6 1-6-1-6 1-5 4-10 12-4 5-6 7-10 2-11-1-8-4-4-4-13-10-14-3-15-1-16-4-10-7-4-1-4 1-7 4-7 1-5 1-16-2-4 0-5 0 3-14 7-9 8-1 5-9 7-3-2-9-10-3-10-1-12-10-10 0-7-4-8 0-6 12-10-2-7-10 0-10-9-7-6 3-6 6-6 1-7-3-13-3-20 7-4 0-5 3-9-2-9 5-1-1-3 1-2 3-4 5-2 3-9 5-3 3-2 5-5 7-9 5-29 5-5 1-4 3-12 15-5 4-5 1-4 4-3 5-6 10-13 24-9 11-9 7-10 4-8 6-2 10-5 11-10 18-8 11 0 3-4-2-5-1-6 3-4 2-2 4-2 4-4 1-4 4 1 3-3 3-4 2-1 4 0 3 2 4-4 4-2 6-2 6 3 12 4 10 4 7-6 5-5-4-9-1-6 4-7-5-3-3-5-7-3-1-2-2-4-2-5-6-3-8-1-8 0-9 0-4-3-6 0-4 1-4 5-7 4-10 6-9 12-52 1-5-1-5-2-4-6-7-2-3 0-5 3-9-1-5-3-4-6-5-11-8-6-2-14-2-5-4-5-6-5-1-10 8-5 5-4 6-3 3-7-3-5 2-14 10-5 3-10 1 0-380 1020 0 0 417-9 6-3 1-2-2-4-7-3 0-2 3-2 6-2 5-4 1-3-4-1-4-1-1-3 8-3 5-4-1-3-6-5-10-2-4-2 0-28 15-5 7-10 7-19-2-5 7-4 6-11-2-10 1-3-10-7-12-24 1-12-12z"/>
<path class="e" d="M-10 1010l0-1 1 1zM-7 790l14 3 7 3 3 6 5 15 0 7-5-1-5 1-2 0-4-3-2 2-1 2-2 2-11 7 0-46zM116 569l-15 4-6 4-5 8-4 9-3 8 3 3 16 8 5 5 4 6 1 7-1 15 2 14 4-5 5-4 5-1 4 6 1 3-1 6 2 3 2 1 3 1 3-1 2-2 6 0 6 3 6 4 4 5 3 7 2 5 3 4 8 3 14 1 7-1 7-2 3-2 3-2 2-2 4-1 3 0 10-2 17 11 9 5 15-2 10 2 10 4 6 5 1 5-4 7 3 3 5 0 8-4 6 1 13 6 5 1 10-1 5 2 1-2 1-3 1-4 2-1 2 2 8 2 3 1 5-1 16-4 28-3 10-2 6-6 6-17 9-5 4-1 10 1 4-2 4-3 4-3 3-3 5-2 9 1 23 17 28 15 32 3 72-4 14-7 7 0 9 1 18 0 8 2 8 4 3 2 5-1 4-1 4-2 4-2 4-4 2-5 2-5 3-4 4-3 4-1 10 1 3 1 3 3 6 13 3 3 5-1 9-3 4 0 11 3 4 0 12-2 7-3 16-11 8-1 4 2 2 4 0 5 3 4 4 0 2-3 0-5-3-3 5-3 0-4-1-4 4-1 5 2 7 7 5 2 15-3 9-9 3-14-5-16-4-9-13-12-3-9 0-5 1-5 1-5 2-4 1-2 3-4 2-2 0-2 1-6 1-2 3-5 8-6 2-5-1-3-16-40-12-7-3 1-16 3-11-2-19 3-13-1-5-2-6-1-6-2-4-4-2-5-7-6-3-4-5-20 1-11 12-16 2-8 0-11-8-7-9-3-1-9 16 0 13 1 12 12 24-1 7 12 3 10 10-1 11 2 4-6 5-7 19 2 10-7 5-7 28-15 2 0 2 4 5 10 3 6 4 1 3-5 3-8 1 1 1 4 3 4 4-1 2-5 2-6 2-3 3 0 4 7 2 2 3-1 9-6 0 603-660 0-3-7-4-25 1-7 11-19 1-7-2-2-4 0-5-3 5-2 4-2 1-4-4-5-1 0-2 2-2 1-1-1-4-5-5-7-1-3 0-5 0-3 0-4-3-4-2-4-1-5-2-4-3-2-2 0-5 0-2 0-3-2 0-1 0-12-1-4-5-1-5 1-2 3 1 8 1 3 0 2-5-2-2 0-3 3-3 5 2 3 4 2 5 1-3 2-4 2-3 2 0 3 3 2 3-1 3 0 2 4-2 4-11 9-2 8 0 4-1 3-1 3-4 0-2-1-3-3-3-6-4-1-13 1-2 0-2 0-1 0-4-6-3 0-3 3-4 2-4 0-5-3-5-3-6-7-8-4-3-3-1-5-3-4-3-2-17-8-3-3-2-5-2-17-1-5-5-8-2-5 0-7 3-1 3 2 3-1 0-4-2-2-6-2-4-1-1-2 1-3-1-3-2-2-6-1-2-2-3-1-3-5-3-1-4-3-2-3-3 0-4 2-3 3-3 4-2 5 0 5 5 6 7 2 6 4 3 8 1 2 2 1 2-1 3-2-1 6 2 2 2 0 3 1 1 5-5 4-11 3-7-3-11-11-6-1-6 3-3 9-4 2-5-2-2-4-1-5-2-4-9-4-22 7-4-3 2-2 9-4 3-3 3-5-1-4-3-2-6-3-1-2 0-5-4-2 0-2 0-2 1-3-6-1-2-1-3-2-2-3-1-3-2-3-3-1-5 0-2 0-6-3-5-3-5-5-3-3-3-4-4-2-9-3-3-4 0-5 0-6 0-5-3-2-3 4-2 3 0-385 10-1 5-3 14-10 5-2 7 3 3-3 4-6 5-5 10-8 5 1 5 6 5 4 14 2 6 2 11 8 6 5 3 4 1 5-3 9 0 5 2 3 6 7 2 4 1 5-1 5-12 52-6 9-4 10-5 7-1 4 0 4 3 6 0 4 0 9 1 8 3 8 5 6 4 2 2 2 3 1 5 7 3 3 7 5-2 8z"/>
<path class="f" d="M801 408l-16 0 1 9 9 3 8 7 0 11-2 8-12 16-1 11 5 20 3 4 7 6 2 5 4 4 6 2 6 1 5 2 13 1 19-3 11 2 16-3 3-1 12 7 16 40 1 3-2 5-8 6-3 5-1 2-1 6 0 2-2 2-3 4-1 2-2 4-1 5-1 5 0 5 3 9 13 12 4 9 5 16-3 14-9 9-15 3-5-2-7-7-5-2-4 1 1 4 0 4-5 3 3 3 0 5-2 3-4 0-3-4 0-5-2-4-4-2-8 1-16 11-7 3-12 2-4 0-11-3-4 0-9 3-5 1-3-3-6-13-3-3-3-1-10-1-4 1-4 3-3 4-2 5-2 5-4 4-4 2-4 2-4 1-5 1-3-2-8-4-8-2-18 0-9-1-7 0-14 7-72 4-32-3-28-15-23-17-9-1-5 2-3 3-4 3-4 3-4 2-10-1-4 1-9 5-6 17-6 6-10 2-28 3-16 4-5 1-3-1-8-2-2-2-2 1-1 4-1 3-1 2-5-2-10 1-5-1-13-6-6-1-8 4-5 0-3-3 4-7-1-5-6-5-10-4-10-2-15 2-9-5-17-11-10 2-3 0-4 1-2 2-3 2-3 2-7 2-7 1-14-1-8-3-3-4-2-5-3-7-4-5-6-4-6-3-6 0-2 2-3 1-3-1-2-1-2-3 1-6-1-3-4-6-5 1-5 4-4 5-2-14 1-15-1-7-4-6-5-5-16-8-3-3 3-8 4-9 5-8 6-4 15-4 6-4 2-8 6-4 9 1 5 4 6-5-4-7-4-10-3-12 2-6 2-6 4-4-2-4 0-3 1-4 4-2 3-3-1-3 4-4 4-1 2-4 2-4 4-2 6-3 5 1 4 2 0-3 8-11 10-18 5-11 2-10 8-6 10-4 9-7 9-11 13-24 6-10 3-5 4-4 5-1 5-4 12-15 4-3 5-1 29-5 9-5 5-7 2-5 3-3 9-5 2-3 4-5 2-3 3-1 1 1 9-5 9 2 5-3 4 0 20-7 13 3 7 3 6-1 6-6 6-3 9 7 0 10 7 10 10 2 6-12 8 0 7 4 10 0 12 10 10 1 10 3 2 9-7 3-5 9-8 1-7 9-3 14 5 0 4 0 16 2 5-1 7-1 7-4 4-1 4 1 10 7 16 4 15 1 14 3 13 10 4 4 8 4 11 1 10-2 6-7 4-5 10-12 5-4 6-1 6 1 6-1 5-5 5 10 8 7 19 10 7 2 3 1 9 0 10 4 10 1 6 1 5 3 4 3 4 6-1 5-3 6z"/>
<circle class="h" cx="308.2" cy="515.2" r="11"/>
</svg>
