<?xml version="1.0" encoding="UTF-8"?>
<svg xmlns="http://www.w3.org/2000/svg" width="1000" height="1000" viewBox="0 0 1000 1000">
<style>.a{fill:#68A3DE}.b{fill:#86B4E6}.c{fill:none;stroke:#B9D4F0;stroke-width:0.9}.d{fill:#DAE6AF;stroke:#2D6399;stroke-width:0.6;stroke-linejoin:round}.e{fill:#A6C295;stroke:#2D6399;stroke-width:0.6;stroke-linejoin:round}.f{fill:#487D29;stroke:#2D6399;stroke-width:0.6;stroke-linejoin:round}.g{fill:none;stroke:#D7263D;stroke-width:4}.h{fill:#FFFFFF;stroke:#1F2328;stroke-width:2.5}.i{fill:none;stroke:#1F2328;stroke-width:9.4;stroke-linecap:round;stroke-linejoin:round}.j{fill:none;stroke:#FFFFFF;stroke-width:4.4;stroke-linecap:round;stroke-linejoin:round}</style>
<rect class="a" width="1000" height="1000"/>
<path class="b" d="M-10 -10l1020 0 0 1020-1020 0z"/>
<path class="c" d="M4 112l-14 9 0 889 823 0 19-35 10-25 18-58 9-47 3-28 1-29 21-18 19-19 31-23 28-25 38-25 0-688-790 0-13 35-8 34-30 2-34 5-39 8-32 11-29 11z"/>
<path class="f" d="M747 182l40 11 34 2 1 24-29 53-60 89-69 63-124 80-49 51-28 83-18 189-48 73-35 15-40 2-33-12-20-36-27-35-6-10-12-77-6-13-10-12-11-9-15-7 21-20 12-21 7-26 2-35-4-17-10-21-11-18-21-15 9-15 15-9 9 11 27-3 118-69 28-25 107-62 21-21 18-25 15-29 41-135 13-25 23-22 32-18 27-3 12 28 20 45z"/>
<circle class="h" cx="425.2" cy="427.9" r="11"/>
</svg>
