<?xml version="1.0" encoding="UTF-8"?>
<svg xmlns="http://www.w3.org/2000/svg" width="1000" height="1000" viewBox="0 0 1000 1000">
<style>.a{fill:#1F3550}.b{fill:#2C4B6F}.c{fill:none;stroke:#4A6F94;stroke-width:0.9}.d{fill:#4B4F45;stroke:#7FA6CC;stroke-width:0.6;stroke-linejoin:round}.e{fill:#5E7050;stroke:#7FA6CC;stroke-width:0.6;stroke-linejoin:round}.f{fill:#7FB84A;stroke:#7FA6CC;stroke-width:0.6;stroke-linejoin:round}.g{fill:none;stroke:#FF6B6B;stroke-width:4}.h{fill:#FFFFFF;stroke:#1F2328;stroke-width:2.5}.i{fill:none;stroke:#1F2328;stroke-width:9.4;stroke-linecap:round;stroke-linejoin:round}.j{fill:none;stroke:#FFFFFF;stroke-width:4.4;stroke-linecap:round;stroke-linejoin:round}</style>
<rect class="a" width="1000" height="1000"/>
<path class="e" d="M-10 -10l1020 0 0 1020-1020 0zM840 483l14-159-21-154-47-87-191 33-212 109-68 69-102 104-67 220 93 196 198 103 205-30 119-200-6-28 4-29 10-24 17-20z"/>
<path class="f" d="M840 483l14-159-21-154-47-87-191 33-212 109-68 69-102 104-67 220 93 196 198 103 205-30 119-200-6-28 4-29 10-24 17-20z"/>
<circle class="h" cx="562.7" cy="548.8" r="11"/>
</svg>
