<?xml version="1.0" encoding="UTF-8"?>
<svg xmlns="http://www.w3.org/2000/svg" width="1000" height="1000" viewBox="0 0 1000 1000">
<style>.a{fill:#68A3DE}.b{fill:#86B4E6}.c{fill:none;stroke:#B9D4F0;stroke-width:0.9}.d{fill:#DAE6AF;stroke:#2D6399;stroke-width:0.6;stroke-linejoin:round}.e{fill:#A6C295;stroke:#2D6399;stroke-width:0.6;stroke-linejoin:round}.f{fill:#487D29;stroke:#2D6399;stroke-width:0.6;stroke-linejoin:round}.g{fill:none;stroke:#D7263D;stroke-width:4}.h{fill:#FFFFFF;stroke:#1F2328;stroke-width:2.5}.i{fill:none;stroke:#1F2328;stroke-width:9.4;stroke-linecap:round;stroke-linejoin:round}.j{fill:none;stroke:#FFFFFF;stroke-width:4.4;stroke-linecap:round;stroke-linejoin:round}</style>
<rect class="a" width="1000" height="1000"/>
<path class="b" d="M506 494l0 9 3 2 2 6-7 4 1 116-7 0 0-109-7-3-5-5-6-15 11-9 5-5 6 2z"/>
<path class="c" d="M492 489l-1 4 0 12 2 6 3 2 6 2 5-1 4-3-2-6-3-2 0-9-4-7-4-1z"/>
<path class="d" d="M40 511l0-2 1 0 2 0 3 0-3 2zM46 507l-1-1 2 0 1 1zM50 503l1 0 3-1 2-2 3-2 1 0-1 4-2 1 0 3-2 1-3-2-2 0-3 0-1 0zM55 497l3 1-2 1-2 2-1 1-3 0-1-1 4-3zM0 223l1-1 2 1zM20 132l-4 1-5-1-3 1 1-1 2-1 4 0 2 1 2-1 6 1-4 1zM66 118l3 0-3 2-1 0-5 3-2 0 7-4zM37 95l1-3 1 0 0 2-3 2-1 3-2 2zM61 90l3 0-3 1zM72 88l-1 2 0-1zM40 91l1-2 2-2 2-2 0-2 2-2 2 0-1 5-2 4-2 0-2 1zM35 72l0 2-1 3-2 2-1 3-1 1-3 2 0 1 2-1 3-1 2-4 2-1 1-3 3-7 1 0 1 2-1 1 0-1-1 0-1 3 2 1 0 2 0 2 3 1-1 2-1 2 1 0-1 1-4 4-2 3-4 6 4-7 5-6 1-2 0-2-2 1-2 4 1 0-2 3-5 6-2 2 4-4 3-5 0-3-3 3-4 5-3 3-2 0-2-2-2 3-1-1 4-3 3-3 2-2 0-1-2 0-4 4-6 4 0-2-1-1 9-8 5-2 1-2 2-3 1-4zM29 78l-2 1-6 2-2 0-1 0 2-4 2 0 2 0 1-1 2 1 2 0 2-2 2-2-2 3zM50 73l-2-1 2 0zM36 62l1 2 0 2-1 2-2 1 0-1 1-2 0-2zM29 59l2 0 0 1-2 3-1-1zM32 62l0-4-1-1 1-1 1 0 1 2-1 3zM64 57l-1 0 1-1 2 1zM64 53l-2-1 3-1 1 1zM40 37l1-2 0-1 2-1 0 2-2 2 0-1-2 3 0-2zM75 4l2 4-3-4 1-1 0-2 1 3zM77 -1l-1-1 1 0zM73 -4l-1-1 1-1zM251 616l-1-1 1-1 0-1 1 0zM238 579l1 0-4 4zM227 562l-1 1 1 6-1-2-2 0-2 1 1-3 2-3zM223 555l0 3-1 0 1-2zM223 553l-2 3 0-2zM341 535l-2 1-1 0zM342 522l-3-1 0 1 2 1-1 1 2 1 0 2-3 0 2 1 1 0 0 1-2 1-5 0-1 0-2-1-2-3 1 0-2 0 3-3 0-1-2 1 1-1-1-2-1 1-3-1 4-4-2 1-2 2-2-2 1 2-3 1 3 1-2 1-1 0-5-2 0-1-2 0-2-1-2-1 0-1-2-2 0-2 2 1-1-1 1 0-4-1-1-1-1 1-4-1 1-5 1-1 0-2-1 1-3-1-4-1 0-2 1-2 3-3 1-2 5-4 2-2-1 4 1 3-4 4 2 1 1 0 0 1 2 3-1 1 2 0-1 4-1 1 2-1 0 2 2 1 1-1-1-2 1-1 2 0 3 1 0 1 2 2 0-2 2 1 1 2 2 1 1 0 3 0 3 0 5 0 4 1-3-1 5-1 7 1 2 0 2 0 3 1-2 2-3 1-2 1-1-2-1 2-1-1 0 2-1 0 0 1-3 0 2 1-1 1-3-1zM213 532l0-3-3 0-3-1-1-2-2-1 0-3 2-2-1-2 1-1 0-2 5-39 0-2-1-1-2-4-5-6-2-1-1 0-2 2-4-1-2 2-3 0-4 1-3-3 0-3 0-3 0-1-3-1-2 0-16 18-7 6 0 1-3 8 0 1-3 2-1 2-1 0-2 3 1 2-2 3-1 2 1 2 0 1-2 2-3 2 0 3-5 2-3 2-2 2 0 2 2 2 0 1-2 0-1-2-2 1-1 3-2 2-1-3-1-1-2 1-2 2-2-1-2-1-1-1-1 2-2 0 1 1-2 3-2 2 0 2-20-4-18-4-15-3-21-5-8-2 2 0 5-1 2-1 0-1 3-1 2 0 3-1 2 1 2-1 3-2 3-1 3-1 3 1 2-1 0-3 2-2 1-4 1-1 5-3 2-2 0-2 2-3 3 0 3-2 3 1 3-1 1-1 1-1 3-2 2-2 3 0 3-1 1 0 2-3 2-1 3 0 1-1 3-1 2 1 1 1 11-3 3-1 2-1 1-1 3 1 2-1 1 0 3-1 1-1 5-1 5-3 3-3 3-3 3-2 2-3 1-1 2-1 3-3 4-3 4-4 0-2 3-3 4-1 2-2 2-1 3-3 3-2 3-1 1-1 2 0 3-2 3-1 1-2 3 0 4-3 2 0 2-1 3 0 10-5 3 0 4-1 4-1 6-2 7-2 2 0 8-2 4 0 4 1 5-1 3 0 4 1 3 1 7 1 4 2 3 2 3 2 4 5 1 1 2 2 0 3 1 2-3-3-6-2 2 2 1 0 1 2 2 2 1 2 1 2-2 0-1 2 2 2-1 1-2 1-1 2-5 0-4 2 0 1-2 3-4 1-1-1 0 2-1 1-5 2-3 1-3 0-2-2-4-2-2-1-3-3 0-2-1 1-3 3-1 0-2-1-2 0-1 2-2-2-2-1-1 1-1 1-2 0-1 1-5 1 3 0 3 0 1-1 5-1 1 3 8 4 4 1 1 3 1 4 1 3-1 0 1 1 1-1 3 0 3-3 2-1 2-1 5 0 1 0-2 2 4-1 2 0 1 1 0 2 1 0 1 1-2 1-1 1 0 1-3 3 0 1 1 0-2 2 2 0-2 4 0-2-1 2-1 2-2 1-2 2-7 4 3 0 2 0-1 2 2 0 2-1 2 1 1-1 3 0 0 4-1 1-2 3 1 3 1 3-1 0 2 2 1-1 0 5 0 2-1 1 2 1 1 3-2 2 2 0 1-1 0 2-1 1 0 2 2-1 6 1 2 1 0 2 2-1 0 2 2-1 2 0 3 2 1 1-2 1-2 1-4-1-1 1 2 2 1-1 2 2 2 3 3 1 1 2 0-2 4 0 2 1-1 0 0 2-2-1 3 1 4 0 1 1-2 1-2 0 2 2 3-2 0 1 1 0 2 0-1-2 8 2 4 2-4 2 2 0 1 1 0-1 1-1 3 2 1 0-1 1 1 0 2-1 1-1 2-1 6-3 2-2 2-1 0 6 0 1 2 2 3 2 1-1 1 1 1-2 3 0 2 2 1 3 2 2 0 2-3 1-1 0-2 1 1 1 8 0 3 1 1 3-2-1 1 1-2 1-1 1-1-2-1 2 0-2-2 0-3 2 0 1-5 0-3-1 1 2 0 1-4 0-2 0 1 2-1 0-2-1-3 3-5 0-3 2-1 0 0 1-2 1 0-2-1 1-1 0-1 2-1-1-1 1-4 0-1 2 1 0-1 1-3-1-2 1 0-3-1 1 1 2-1 1 0-2-1 0 0-2-1 3-1-1-2 1-1 2-3-1-1-1-1 3-1-1-3-4 0 2 1 0 1 3 0 3-1 1-1 0-1 1 0-1-4 0 0-2-3 0-1 0 0-2 1-1-1-1 2-3-1 1-4 1 0 2 1 3-1-1-1 2-1-1 0-2-1-1-1 1-2-1 0 2-2 2 0 1 2 0-1 2 2 1-3-1 0 1 2 1-1 1 1 0-1 1-1-1-2-2 1 2-2 2-2 3-1-1-2 1 1 0 0 2-2 1-2-1 1 1 0 2-2 1-2 0-1 1 1 1-1 2-2-2 1 3-1 0-1-2 0 2-1 2-2-3 1 4-2 0 0-2-2 3-1-2-1-3 0 1 0 2-1 2-2-1 1-3-2 1 1 3-1 3-1 1-2-2 1 2-2 1 0 2-1-2-1-2-2 2-2 0 0-2-1-1 0-3 0-1-1 2 0-3-2-4-1 1-1-3 0 2 1 2-2 2-1-1 0-2-2 1 0-3 0-2 0-2 1-3-1-3 1-3 1-2 1-4 3-4 2-1 3-2 0-1-2-1-7 7 0-2 5-5 3-1 3-2 1 3 2 0 4-4-6 2 1-2 8-4 1-1 5-2 1-1 5-2 4-3 4-1 6-1 2-2 1-1-2-1 3 1 1 1-1 1 0 3-1 1 0 2 2-2 2 2 1 2 0 3 1-1 1-2-2-2 0-1 2-3 4-1 2 0 2 0 0-1 2 0 2 0 4 0 1 1 1-2 2 0-4-1-2-1-6-1-2 2-1-2-2 0-1-1-3 0-3 0-3 1-1-1-3-1-3 0-1 1 0 2-2 1 0-2-2-1-2 1 1-2 0-2 3-1-1-1 5-2 1-1 2-1 4-3 0-1 1-2 2-1-1 3 2 0-1-1 1-1-1-3-3 3-1 1-1 1-1 0 1-3 0-1 0-2-1 0-3-4 0-2 0 1 3 6-1 2-3 2-2 4-3 0-2 1-1 1-6 1-3 2-5 3-2 1-4 1-1 2-1-1-4 1-2-1-1-2-2-1 4-3 0-2-1 1-2 2-2 1 1 2 2 1-2 1-2 2-1-1-1-1-1 1 2 0-2 1-1 0-1 1-2 1-1-3-1 1-4 2-3 0 0-1-3 1 0-3 2 0-2-1 0-1-3 1 0 3-2-3 0-2-2-2 1 2-2-1-2 2-1-1-3-5 2-3-1-4zM136 464l-1 2-5 2-2 0 0-1 3-2 4-2zM296 458l-3 2-1-1 1-1-1-2 1-1 4 0 1-2-1 3zM151 451l-1 1-2 0 1-1zM298 449l0 3-1 1-2 0zM337 388l2 1 2 1 2 2 4 2 2 1 2 1 3 4 3 1 1 2 5 2 1 1 2 0 1 2 3 5 1 1-2 2-2 1-2-1-4 0-2 0-3 0-2-1-4-2-4-1-5-2-5-2-2-1-2-2-3-2-4-2-1-4-2-4-4-3-6-3-3-2 0-1-2 0-2-2 1-2 5 0 1-1 2 0 4 3 6 2 2 0 6 2 3 1zM320 371l1-2 1 2zM-10 257l2 0-2-1 0-1 1-3-1-2 0-6 2 0 1 0 0-5 4 0 1-1 0-1 3-1 3-3 0-2 1 0 2 1-1-1-2-1 0-1 2-2 0-1 1-3-1-3-1 0 0-1-2-1 2 0-1-1 1-2-2 0 1-1 0-2-1-1 1-1 1 1 1-2-1 0 3-2-3 0-1-3 1-1 2 0-1-1-1 0-2-2 2 0-1-1 3-4 0-1 1-2-1 0 0-3 1-1 0-3-1 0-1-3 2 0 0 1 1 0-1-2 2 1 1-1-1-2-2 1 2-4-3-1 3 0 1-2-1-1 2-1 2 2-1-2-2-1 0-2 2 1 0-4 2 1 0-1-3-4 2-1-1 0 2-1-1-1-3 0-1-1-2-1 3-2-2-1-1-1 1-2-1-1 1-3 0-3-1-1 2-1 0-1-2 1 1-2-2 0 1-1-2 0 4-2 3 0 4 0 0-1 8 1 2-2 7 0 1-1 3 0 4-1 2-2 4 0 3-2 2 0 3-3 1 0 11-5 3-3 1-1-2 1 0-1 4-2 4-3 2-2 0-1 3-1 1-1 4-6 1-2 2-5 1-5 3-7 1-9 2-3 0-1 0-5 1-5-1-1 0-7 1-2-2-8 0-4-3-5-1-1 0-2-2-1 1-1-2-4-1-1-1-1-3-3-1-1 0-1-1-2-1-2-1-1 0-2-2-3 0 2 1 1-1 0-1-3-1 0 0-3 2 0 0-3 1-1 0-3 1-2 1 2 1-2 1 1 0 1 3-2-2 0 2-2 1 0 0-1 143 0 5 3 2 0 2 0 1 1 1 0 1 1 3 1 5 0 1 0-1 3 3 1-2 3 1 1-2 2 2 1-1 3-3 1-2 2 1 1 1 2 0 2-2 1 0 1 2 0 3-1 2 2 2 0-1 2 0 1-1 1-1-1 0 1-2-1-1 1-1 2 0 1 1-1 2 2-2 2-1-2 0 7-1 0-2 3-2-1 0-2 1-1 0-2-2-1 0-3-2 3 1 1 0 4-2-2 0 2-3 0-1 1-2-1 3 3 2-1 0 3 1-1 1 1-2 2 1 2 3-4 1 0 1-2 2 0 3-3 3-1 5 1-1 1 2 0 3-1 2 2 2 2 2 1 1 2-1 2 1 2-1 3 1 0 0 2 2 0-1 2 0 1-2 4-2 3-1 4-3 3-5 0-3 1-2 1-2 1-2 0-2 1-3 3 5-3 1 0 3-2 4 0 1-1 5 0 4-3 0-4 1 0 3-7 0-2 1-1 2 0 1-2 1 2 1 1-1 3 0 4-1 2-4 3-1 3 3-2 1-2 2-1 1-2 1-4 1-2 1 0 1 2-2 3 0 1 1 2-2 4 1 3-2 3 2-3 0-2 2-4 3-2 2 1 1-2 2 0 1-1 2 0 0-1 2-1 1-2 1 1 0 1 2 0 0-2 3 1 0-2 1 0 0-1 1-2 1-3 2 0-1-1 2-3 1 0 2 2 1 2 1 1 1 3 2 2-2 4 0 3-2 1 0 2 1-2 1-1 2-2-2-1 2-2 1-2-1-3-1-1 0-2-1-1 2-3 1 2 2 0 1-1-3-2 0-1 2 0 0-3 2 2 2 2 0-2-2-1 0-1 2-1 1 2 2 1-1-2 1-1 3 1 1-1-2 0-2-1-2 0-1-3 1-1-1-1 0-2 1 0 2 3 0-2 2 0-1-2 0-2 1 0 2 3-1-4 1-1-2-3 2 1 1 0 4 1 0 1 3 3-3-4-5-3-1-7 3-3 2-1 3 2 2 1-3-3 0-2 1 1 1-1-2 0 2-2 1 0-1-3 2 0 1-1-1-1 1-1 1-2 2-1-1-1 2-2 0-2 4 1 1 2 2 0 1 2-4-2-3 2 3-1 1 0 1 2-2 1 1 1 2-2 1 2-3 2 1 1-3 0-4 2 0 1 5-2 2 0 1-2 0 3-1 1-2 0 2 1 0 2-2 1 3-1 1-2 0-3 2 1 1 2-2 1 1 2 0 1 1-1-1 5-2 0 2 3 4 1-1 1-1 0-2 4 2-1 0-2 3 1-2 1-1 2 3-2 2 1 0 2-1 3-4-1-2 1 7 2-2 3 1 0 2-3 2 1 0 3-2 1 2 0 1-2 2 0-2 2 0 2 2-1 0 1-2 2-1 1-2 1-4 0-3-1-2 1 3 0 0 1 0 2 1-2 1-1 1 2 2-1 2 0 3-2 2 1 2 1 1 0-1 1-3 0 2 1-1 1 2 1-2 0 2 1-2 1-2 1 3 0 0 2 2-3 2 1-1 1 2 1 0 3-3 1 1 0 2 0 1 2-2 1 0 1-3 2-2 1-3 0-1 0-1-1-1 1 2 1 1 1-3 2-2 1-1 2 1 0 3-2 3-3 2-1 3 2 1-1 3 1 1-2 3 0 1 1-2 3 0 1 0 3-2 1-3 0-1 2 2-2 4 1 1 1-2 1-3 0-6 0 2 1-1 1-3 1 1 1-1 1-1 0-2 1 4 0 1-2 2-1 1-1 2-1 0 1 3-1 1 1 1-1 1 1 1-1 1 0-2 2 1 1 2-1-1 1 1 1 1 0 0 1-1 1-3 0-3 2 3-1 2 1-1 3 1 0 1-3 0-1 0 3 2-2 1 2 1-3 1 2 1 2-2 2 0 1 2 1 1 3 1 1 0 2-3 1-1 1-2 1-1-1-2 3-4-2 0 1 3 2 1 0 3-1 3 1 4 3 0 1-2-1 1 1 0 2-2 1-2 0 2 2 1 0 0 2 2-1 0 1 3-2-1 2 4 1 2 1 0 3 0 2-3 0-1 2-2 1-1 3-3 1-1-1 0 4 1-2 3 1-1 1-2 0 3 2-1 1-3-1-4-1-1-2-3 0-2-2-2-1 0-1 3 0 6 0-1-1-5 0-2 0-1-1-1 1-1 1 5 4 4 2 4 2-1 0-6-1 4 2 4 0 1 1 2 0 1 1-1 1-1 1-5-1-2 1 2 0-1 1-3 0 2 1 3 0 3 1-2 1 3 2 2 0 0 2-3-2-1 1 3 1-2 0-2 0 2-1-1 0-4 0-2-1 3 4 1-1 3 0-1 1 4 0 1 1 4-1 0 2-1 0 0 2 1-1 0 2-2 1 3 0 1 1-1 1-4-1 1 3 3 0 2 1 1-1 1 2 0 1-1-1-1 1 2 1 3 0 4 1 0 2-2 1-3 0 0 1 2 0 2 0 3-3 1 0-1 4-1 1 1 2-2 2 2-2 3-6 1 1 2 1-1 1 0 1-2 1-1 3 2-2 1 2-2 3 2-3 1 2-3 3 0 3 0-2 3-3 0 2 1 0 0-2 1 1 0 2-1 0-2 1-2 4-1 0-1 3 3-2 1 0-3 3-1 2-4 2 0 2 3-2 2-2 0-1 2-1 2-2 2 0 1-2-1 4 3-3-1 3-4 5-1 1 5-4 1-3 1-1 2 0 0-1 2-2 1 0 1 3-1 2-3 2-1-1 0 2 1-1 2 1 1-1 3 0 3-2 0 2 1 0-2 3-2 2-3 1 0 2-2 2 0 1-1 2-2 1 1 1 3-2 0-3 4-3 4-4 1 1 0-2 3-4 1 0 0 2 1-3 1 2-1 1-2 2-1 1-2 2 3-1 2-3 1 1 2-2 0 2 1-1 0 2-2 3 1-1 2 3-2 2 2-1 0 1 0 1 3 1 0 1 1-1 1 1 3 1 3 2 0-2 4 0 1 2 3 0 0 1 1-1 2 0 2 3 1-1 1 2 3-1 2 1 0 2 2 1-2 0 1 1 0 1-1 1-5 0 5 0-2 1 0 1-3 2-3-1-2 0-6 1-2 2 4-1-2 1-2 1 1 1-6 1-2 1-3 2-4 0-2 0-3 1-3 1-3 1-3-1-1 1 1 1 2 0 3 0 4-1 3-1 5-2 1 1 4-3 1 0 2-1-2 3-1 0-2 3-2 1-3-1-4 1 2 0-1 2-5 1-4 2-2 2-4 0-3-1-2 0 1 2-1 0-4 1 1 2-2 0 0 3 0 2-1 1 0-1-2-1-2-2-1-1-3-2-4-1-3-2 0-2-1 3-1 1 1 1 1-1 4 1 4 3 4 3 2 1 2 1 1 3-2-1-5 2-1 2 4 0 1 0-3 2-3 1 3 0 3-2 1 2 0-1-1-2 3 0 4-5 1 1-2-3 3 1 4 0 2-1 1-2 3-2 0-1 1 1 2-1 0 1 2-1 1-1 1 0-1-3 4-3 1-2 4-1 3-1 7-2 2-1 6 1 1 0-2-1-2 0-1-1-3-1-3 2-2-2 0-2 3 0 1-1 4 0 4 1 2 0 4 1 2-1 3 3-1 1 2 4 1 1 2 1-2 1 1 1 3 2-2 0 1 1-1 1 0 1-2 2-2 1-4 2-1 1 2-1 0 1 2-1 1 1 0 2 0 1-1 3 2 0 0-2 3-3 0-2 1-1 1-1 2-2 2 0 2 0 1-1 2 1 0-1 4-1 1 1 0 1-3 1-1 1-3-1 3 2 4 1 1-1 3 2 1 0 3 0 2 2-1 1-1-1-3-1-1 1 4 2 0 2 2 1-2 1 3-1 2 3-1 0 1 2-1 1 2 0-1 1 2 2-2 2-2 0 1 1-1 2-1 0-2-1-2 1 1 0-1 1 1 1 1-1 3 0 0 2 2 1 0 3-3 1 0 1-4-1 0 1 2 1 2 2 4 0 1 2-1 2-3-2-4-1 0 1 2 0 1 1-2 2 1 0-2 0-3 1-3-2 2 2 5 0 1 1 2 0 2 0 0 1 2 0 0 1 2 0 0 4-2-1-1 0 1 1-5-1-4-2 1 1 2 0 2 2 2 1 2 1 1 0-2 2 2 0 2 1-3 0-1 0 2 1 1 3-1 1-2 0 1 1-1 1-2 1-2-1 2 2-1 2-4 2-2 2-3 1-2 2-1-1 0 2-3 2-2 0-1 2-2 2-1 2-1 0-1-1-1 3-5 0-1-1 0-2-9 3 1-2-2 2 0-2-2 1 0 2-1-2-2 2-2 2-6 2-1-2-2 2-2-1-4 2-2 1 2 1-1 2-5 3 1 0-2 2 0-2-2 2 1 2-1 2 0 2-1 3-1 0-1-2 1-2-1-1-1 3-2 3-1-1 0 1-2 2-2 0 0 1-1 2 1 0 0 2-2-1-2 2-5 2-2 2 1 2-4 2-1 1-1-1-1 2-1-1 0-2-2 2-1-2 0 1-1 0-1 1-1-1-2 0-1 1-5-1-1 1-1 0 0-2-2 2-2-1-4 2-1-1-2 0-5 1-5 2-2 0 2-1 3-1 0-1-4 1-2-3-3-1-1 1-4-1-3-2-3 0-1 0-2 0-4-1 1-1-2 1-4 0-1-2-1 1-3 0 0 1-2 1-2-1-1 1-2 0-1-2-2 0-3-2-2 0-4 0-3 0-1 1-2-1-5-2-4 1-6 0-1-1-3 0-3-1-1 0-1-1-1 0-4 0-2 1-4 0-3 0-2-2-1 0-2 2-1-1 0 2-2 0-2-1-2 0-1-1 0-1-2-1-2 2 1 2 2 0-1 1-2-1-2-1 0 1-1 1-2 2-2 1-2 0-1 1-3 6-1-1-1 0-2 3 0 3-2 2-1 6-4 4-1 0-3-1-2 1-3-1-1 1-6-1-1 1-1-1-1 3-4 0 1 1 2 0 0 2-4 0-1 1-2 0 2-1 0-2-1-2 0 3-3 1-2 1-1 1 0 2-2 0 1 1-3 0-3 2-1 1-2 1-2 1-2 4-1 1-2 0-1 2-1 2-3 4-2 2-3 2-3 2-1 0-2 0-2-3-2-3-4 0-1-2-4-3-1 0-5-2-1 0-1-1-2-1-4-2-2 0 2 1 5 3-2 0-1 0 0 2 3-1 7 1 4 3 3 3 1 0 2 0 2 2 1 2 3 2-1 2-1 3-1 0-1 3-1 1-2 3-2 2-3 1-3 2 0 2-1 2-2 1-2 0-2 0-1 0-4 6-3 5-3 1-4 1-7 5-1 2-4 1-3 0-6 1-2 0-2-1-3 1-2 1-5 1-1 3-6 1-4 3-2 0-2 0-3 0-4 1-1 4-4 0-2 3-3 4-2 1-2 2-2 1-5 0-2 0-3 3-2 2-4 1-2-1-1-2-3 0-1-2 0 2 6 4 2 0 0 2 0 2-1 1-4-1-1 2-9 2-1 2-4 1-2 1-4-1-7 2-4 1-13 7-5 4zM82 104l1-2 1 2zM91 88l-1-1 1-2zM95 70l-1-1 1-3 0-1 1 3zM282 62l0 2-1 0-2-2 1-2 2 0zM96 59l0 3-1 0 0-5zM256 35l1-2 1 0 1 1zM254 34l-3 0 2-4-1-3 3 0 2 1 1 2-1 1zM87 22l-3-4 3 2 2 3zM351 -1l-3-3-3-1-1-2-1-2 1 0 2 0 1 0 2 1 0 3 1-1 1 1-1 2zM242 -8l-1 1-5-1-3-2 22 0-1 3-2 0-2-1 0 2 1 1-1 0-1-1zM277 -10l6 0-1 0-1 2-2 0-2-1zM407 609l3-2-3 3-3 0-3 0-2-1 6 0zM380 550l-2 2 1-2-2 0-1-2 3-1 3 1-2 1zM413 534l-2-1 2-1zM373 546l-1 1-2 0-3-5 0-4 0-1 0-2-1-2 0-4 2-1 0-2 5-4 3-5 2-2 1-2 1-2 0-2 1-1 1 0 3-6 2-1 2-2 2-4 1-1 3 1 2 0-3 4 1 1 3 0 1 1 0 2-1 4-2 1 2 2-2 3-2 4-3 6-1 2 2-2 2-2 1 0 0 1-1 1-4 5-2 1-1-1-1 1-3 1 0-1-3 3-3 1-1 1 3 0 1-2 3-1 1 0 2-1 0 1-1 1-1 2-2 1-2 0-2 1-1 1 3-1 2 1-5 3-1 2-1 0 2 1 4-2 2 1 1 1 0 1 2 0 0-2 1-2 1-1 1-1 4-3 2-2-2 1-2 0-4 2-2-2 3-2 1-1 4-2 3-4 2 0 0-1-2 0-2 2-4 3 4-5 3-3 2 0 0 1 2 2-2 2 1 2 1-2 1-2 3 1-2 0 4 1 0 1 2 0 2 0-2 1-1 2 2-1-2 3-1 0 0 1 3 0 0 3-1 0-3 2-4 0-1 1 2 1-3 2-1 2-2 0-2 2-3 0-6 2-1-1-2 0-1-2-1 1-2 0-4 2zM362 485l-2-1-2 1-1-1 2-3 0-3 3-1 7-6 2-1 3 0-3 3-1 0 2-2-3 0-3 3-2 2-3 2 2-1 3-3-2 4-2 0-1 2-1 0-2 3 2 0zM428 362l1 0 1 2-1 2 0-3zM478 356l2 0-2 1zM441 357l-1 0 1-2zM449 345l-2 1 1-2 2-1 1 0zM453 342l-1 0 0-2 2 0zM449 339l3 0 0 1-2 1-2 0zM483 252l-1 0 0-2 2-1zM478 228l1 2-2-1zM480 221l1 1-2-1zM478 218l2-1 0 3-2 0zM465 209l-1 2-3-1-2-3 2 0 4-3 0 2-1 3 2-1 1 1zM406 164l2 0 0 1 1 0-1 1-2 0-1-1zM404 161l-1 1-4-1-1-3 2-1 1-2 1 1 0 1 2 1-1 3zM388 145l4 2 2-1 1 1-1 3-3-1-2-1zM395 141l2 2 0 1 2 0 2 0-1 1-4 0-2-1-1 1 0-1-2 0 0-1 4 1 0-1-4-1 1 0 0-2zM402 139l-2 1 0-1 1-3 2 1zM393 133l2-1 2 1 0 1-1 4-1 0-1-1-2-3 0-2 0-2 1-2 1 0 1-2 1 0 1 1 1 0-1 2 1 1-1 1-2-1-1 2zM390 107l2-3 2 1-1 2-2 1 3 1-1 0-4 0-1-2zM391 104l0 1-3 2-2-2 1-2 2-1zM393 95l1 0 0 2-2 1-1-3-1 0 2-2 1 1zM389 92l1 0 0 2-2 1-2-2 1-2 2-1zM354 21l-2-2 2-3 1-1 1 2-1 0 2 2-1 1zM538 489l0-1 1 0zM512 487l-1 2-2-1zM554 484l-1 0 1-2zM549 482l3-2 1-3-1 0 1-2 1 1 1-3 0 1-1 4-2 4-3 1zM556 480l0-3 0-5 0 1 0 2 0 3zM510 475l1 0-2 1-3-1 0-1 3-1 1 0zM584 472l1 1-1 1-2 0zM569 453l-1 4-4-1-2 1-1-1-2-3 0-1 2 2 2 0 2 0 1 0 3-2zM587 496l0 2-1 4 0 2-2 2-1 3-2 1-2 0-1-2 0-2-2 2 0-1-1 2 0-2-2 2-3 2-1-1-1-2 1-2 0-1 1-4-1 3-1 0 1-4 2-1-2 0-1-1 1-4 2-2 0-1-2 0 1-2-2 4-2 2-1 1-2 3-1 0 0 2-4 3-2 1-2-1 0-2 1-5 1-2 2-7 2 1-1-1-1-2 2 0 1-2 0-1 2-2-1 0-1 0-1-1 1-2-1-4 0 1-1-5-1-3-2 0 0-2-1 2-2-2-1 5-1 2-1-1 0 3-3 5 1 2-1 1 0-1-1 2-3 2 4-8 1-2-2 3-1 2-2 3-1 0-1 0-2 1-1-2 0 2-1-2-3 6-2 2 1 1-1 1-1 0 1 3-3 2-1-1 0 3-1 2-3 0 0 2-1 0-1-1 0-1-3 1-2 1-2 1-3-1-3-1 0-3 2-4 3-1 2 1 5-2 1-2 4-3 1-5 2-2 5-2 2-1 1-3 3-1-1-1-3 2-5 1 0-1 3-5-1 0-3 6-1 0 1-3-2 1-3-1-1 1 0-3-2 2-1 2 2 0 0 1-1 5-2 0-2 2 0-2-1 1 1-3 0-1-1 2-3 1-1-2 0 2-1-1-2 1 4-5-2 1-3 2-4 2-1-1 1-1 2-1 6-2 2-2 2-1-2 1-3 1-2-1 0-2 2-1 1-3 0-1 2-3-1 0-2 1 0 4-3 1-2 2-2 0 1-2-2-3 1 2-1 3 1 0-2 1 1 1-3 1 0-2-1 2-2 1-3-1-4 0 1 1-1 1-2-2 1 2-1 1-2 0-3-2-4 1-2-1-3 0 0-2-1 1-5-1-2 2-2-2-1 1-2-1-2 0 1-2-2 1-2-1-4 1-2 0-2 0 1-2-1 0-1 3-2-1-2 1-2 1-1 0-6 0-5 1-3 0-1-2-1-2 1-3-1-1 0-2-1-2 0-1 2-1 2-3 2-1 4-3 2-2 1-1 4-3 1-3 3-2 2 0-3 1 3-1 2-2 3-1-1 0-3 1-2 0-2-2-2 0-4 1-6 0-4 1 1-2 3-3 3-2 4-3 0 1-2 1-1 2 0 2 1 0 0 2 1-2 1 1 2 0 1-1 1-5 1-3 2-2 1-2 0-3 2-2 1-3 1 0-1 3 4 0 2 1 2 2 3 1 0-1-2 0-2-2-1-2 0-1 5 0 2-2-2 1 0-1-4 1 0-1 2 0 2-2-2 1-3-1-2-1 0-4 1-3 4-4 2 0 1 1 0 3 1 1-1-3 1 0 2 2 2-1-2-1-1-2-1 1-2-4 0-2 2-3 0-2 3-4 0-3 3-5 1-3 2-3 0-4 1-2 2-1 1-4 1 0 2 1 1-1-2 0-1-1 0-2-2 0 1-1 4-1 3-2 3-4-2-1 1-1-2 0 0-2 1 0 1 1 2-1-2-1 2 0 0-2 2-1 0-2 1 0-1-2 2-3 1-1 4-2 3-1 1-1 2-1 1-1 2-1 5-3 2 0-2 2 1 0-1 2 3 0 3 1-1-2-1-1 1-1 1 1 3-1 2 0-1 3-2 0 2 1-1 4-1-1 0 2-1 0-1 2-1-2-3 0-1 0-2-1-1 1-1-1-2 0 0 2 2 1 0 2-1 0 1 1 1 2 0-1 3-2 2 1 1 1 0 4-3 5-1 3 0-1-1 1-2 3-1 2 0-1-2-1 1-5-1 2 0 1 0 2 0 3 1 1 0 1-3 3 0 1-2 0 1 1-3 5-1 4-2 3-2 2-1 0 0 1-2 3-1 4 1-1 0 3-1 2-3 2 3 1 0 1-1 5 2-3 0-2 5-6 2-1 1 2 0-2 1 0 0-2 1-3 1-1 1-2 2-2 2 2-2 6 1 0 1-2 1-1 0 2 1 0 1-3 1 1 3 3 1 1 2-2 2 0 2-2 0 2 0 2-2 1-3 3-3 0-6 4 0 1-2 2 0 2 1-3 4-2 1 0-1 1 3-1-1 2-2 1 2 1-1 1-2 2-2 1-1 2 1 0 3-2 2-1 2 0 1 1-1 1 3 0-1 1 1 2 2-4 1 0-1 2 0 3 1-3 2-2 2 0-1 2 2-1 0 1-3 3 2-1 0 2 1-3 1 0-1 2 0 1 1-1 1-2-1-1 0-2-1-2 2 0 1 0 1 0 1 3-2 3 0 4-2 2-2 2 1 0 0 3-1 1 3-1 2-2-3 1 0-4 6-3-1-3 1 2 1 2 1-1 2 0 0-3 1-1 0 3 0 2 1-3 1 1 2-3 1-2 2-3 2-1-1 2-1 2 3-1-2 4 1 2 2-1-1-1 1-2 2-1 2 1 1 1 1-2 2-2 1 2 2-1 1 2 3 0 2 2 0 1 2 0 1 1 1 0 1 2 0 1-2 1 0 2-1 1 1 1-1 1-4 1 1 1-1 1-3 0 2 1-1 1-2 0 0 1 1 0-1 1 0 1-6 2 0 1 4-2 1 2 1-2 2-1 2 1-3 1 0 1 2-1-3 2 0 3 2 1 2-2-3 0 2-3-1 2 3 0 1 2 2-2 1 1-2 1-3 1-1 1-2 0 0 1 5 0-1 1 0 1-3 1-3 2-2 0-2 2 1 1 2-2 2 0 3-2 1 0-2 2 1 1 2-2 0-2 1-2 2 0-1 1 2 0-3 2 0 1 2-1 1-3 0 2 1 0-1 3 3-5 0-2 1-1 2 0 3 3 2-4 1 0 0-2 2 1 1 2 0 2-1 1-1 3-2 2-1 1-2 0-2 0-1 3-1 0-1 1-1 1-3 3-3-1-2 0-2-2 0 3 1 3 2 0 3 0 1 1-3 1-4 0 1 1 3 0 2-1 2-1 0 2-2 4-1 3-1 1-3-3 2 4 0 2 2 3 1 0 0-2 1 0-1 3 2 2 2 0 0-3 1 0 0-2 1-1-1-2 2-4 2 0 0-2 2-4 3-2 1 1 2-1 2-4 2 2-1 1-2 2 0 1-2 3 0 2-2 5 0 2-1 2-1 1 0 1 2-1-2 2 2 0-1 3 2 0-2 1 2 0 5-4 2-2 1-7 2 1 0 3 2 1 0 2-1 2 2 1 0 1-2 1 1 1-1 2-1 3-2 1 0 1-1 6-2 0 3 1 0 1zM540 405l-1 4-1-1 0-1zM514 403l2 0-1 2zM535 405l2 0-2-2 0-1 2 0 0 1 1 0 2-1 0-2 1 1 2-2 0 3-5 2 0 1zM516 403l-2-1 2-2 1 2 1 0zM553 400l-4 2-1-3 2-1-1-1 1 0 1 1 1-3 1 0 2 2 0 2zM515 380l-2-1-1-1 2 0zM516 360l1-2 3-1-1 3-2 1zM518 353l0 1-2-1 0-2 2-1zM523 317l-2 0 0-1 1-2 2-1zM512 286l-2 0 0-2 2 0zM511 276l1-1 0 1 0 2zM511 273l2 0 0 2-3 0zM508 260l0-2 4 0 1 2-1-1 0 2zM487 246l2 0-1 2-2 0-1-2z"/>
<path class="d" d="M719 0l0 2-1 0 0-1zM728 -2l0 1-2 3 0-3 0 3-3 2-1-1 3-5zM721 -6l2 1 1 3-2 2 0 1-1-1 0-3-1 2-1 0 0-4 1-1zM705 -3l-1 0 1-2zM719 -1l-1 2-2-1 0-4-1 2 0 2-1 1-2-4-1 1 2 1-3 1 1-1-2-1-2 1 0-1 1-1 0-1 5-3-1 0 0-1 1-2 10 0 0 1-2 0 1 1 0 2-2 0-1 1zM706 -3l-1-3 2-3 1-1 4 0-1 1 0 2-1 1-3 0zM702 -4l0-6 3 0 0 2-2 3zM729 6l-1-1-1-2 2-4 5 1 2 2-1 0-1 2-1 0-2 2 0-4zM742 -1l-1-1 0 1 0-3 2 1zM740 -1l-1-1-1 2 0-4 2 0 0 2zM737 0l-1-1-2-2 1 2-2 0-3-1 3-3-4 1-3-1-1-2 1-1 18 1 0 2-1 1-1-1-6-1 2 1 0 3zM723 -6l1-1 2 3 2 1-3 0-1-2zM737 -8l-2 0-1-2 0 2-3 0-4-1-3 2 1-3 17 0 0 1 2 0 1 1-1 1-5 0z"/>
<path class="d" d="M-5 714l-4 4 1-2 5-5zM18 684l7-1 2 0zM27 684l7-1 7-1-1 0-7 2zM5 680l-2 2-4 1 1-2 1 0 1-3 3 0zM43 682l2 0-2-1-1 0-4 1 0-1-1 1-2-1-5 1-2-1-1 1-3 0-5 0-3 1 0-1-1 1 3 1-6-2-4 1 4-1 1-1-1-1-2 1 0 1-3 0-1-3 5-5 1 1 2 0 2-1 0 1 0-2 1 0 1 2 1-3 3 0-1 1 2 1 0-3 2 1 0 1 1 1 0-2 4 2 1 0 1-1 2 0 9 2 5 0 4-2 4-2 1-1 2 1-2 1 0-1-4 2 1 1-4 1-3 3 3 1 1-1 3-2 1 0 0-1 2 1 1-1 1 1 1-1 1 2 2 0 3-2 1 0 2 1-3 1-4 1-10 3-1 0 0-1-1-1 0 2-2 0zM10 674l-2 3-1 0 1-2 3-4-1 2zM62 673l1 1-1 1zM55 674l0-1 1-1 1 1 0 2zM78 675l-2 0 0-2 1-1zM107 669l-1 0 2 1-1 2-4 0-2 0-1 1-2-2 2 0 2-2 2-1 2 0zM68 668l-2 1 0-2zM99 668l4-3 1 1zM86 661l-1 2-1 1 1-4zM88 664l-3 1 1-2 0-1 3-4 1 0-1 2zM86 660l1-3 0 2zM117 678l-4-3 6 2 2-3 1 4-1 1zM109 670l0 2-1-1zM124 664l0 1-2 3zM145 587l0-1 1 0zM105 534l0-2 2-2 2-3-1-1 2 0 1-2 1 1 2 1 2 1 2-2 2-1 1 1 1 3 2-2 1-3 2-1 1 2 2 0 0-1-2-2 0-2 2-2 3-2 5-2 0-3 3-2 2-2 0-1-1-2 1-2 2-3-1-2 2-3 1 0 1-2 3-2 0-1 3-8 0-1 7-6 16-18 2 0 3 1 0 1 0 3 0 3 3 3 4-1 3 0 2-2 4 1 2-2 1 0 2 1 5 6 2 4 1 1 0 2-5 39 0 2-1 1 1 2-2 2 0 3 2 1 1 2 3 1 3 0 0 3-2 2 1 4-2 3 3 5 1 1 2-2 2 1 0 3 1 2 0 1 1 2-1 2-1-1-1 2-2-1 2 3 2-1 0 1 0-2 2 2 0 1-2 2-1 0-1 1-3 3-2-1 1 1-2-1 0-2-1 1-1 2 0 1-1-3 0 2-2 0-1-1 0 1-1 2-2 0 0-1-2 2-1-1 1-2-2 1 1-1-2 0-1 1 0 2-1 0 0 3-1-2 0 2-1-1 0-3 0 1 0 3-2 1-1 1 0-1 0-5-2 0 0 1 0-2-1 1-1-2-1 0 1 2-1 1-2-1-2 2 0-3-1-1 0 4 0-1-2 0-1 0 1 2-1 2 1 1-1 2-2-3-1 0-2-2-2 1 1-2 1 0 0-1 2 0 0-2-3 2 0-2 2-3-1-1-2 3-4 1 1 3-2 2-3 5 0 3-1 0-1 2-1-1-1 2-2 1 2-3-3 2 1-1-2 0 0-3-2 2-2 4-1 1 0-2-1 2 0-1 0-3 1-2-1 2-1 2 1 1-2 0-1-1 1-1 0-4-3 4 1 2-1 2-1 1 0-9 2-2-2 0-2 3 2 0 0 5 0 3-2 2 0-2 0-3 0-1-1 0 1 1-1 1-3 2 2-3 0-1-2 3-1 0 3-3-2 0 1-1-4 2-2 1-2 2 0 1-1 1 2 0-1 3-1 0-2 1-1 0-1 3 2-1-5 4-1 0-2 2 0 2-4 4-1-1-1 2 1 0-1 2-3 3-1 3-1 0 2 1 0 3-1-1 0 1 1 2 0 1 1 0 2-1 1 2-3 2-3 0-2 0 1 2-3 1-1 1 0 2-1 0-2 2 1 0 1 3 2-1 0-2 1 2 2 1 1 2 0 2 2 3 0 3-1-2-1 2-1 0 1 2 3 0 0 4 0 1 0 2 3 2 3 1-2 0 2 0 2 0 5-1 1-1 1-3-1-2-1 2 0-4 0-2-2-1-1 2-1-3 3 1 2 2 1 3 1 4-2 2 2 0-1 5-1-1-6 0-6 0-1 0-2 2-3 0-2 1 0-1 1-1 1-6-2-1 0 2-2 1-2 1 0 1-2-2-1 3-3 1-1-1-3 2-1-1 1-6 1-1 3-4-3 3-1-1-1 3-1-1 0-2-1-1-1-3 0 3 0 1 0 1-2 0 1 1-1 1-1 2 1 1-1 3-1 2-2 1-2-1-8 1 0-1-3-1-2 1-1-2-1 2-2-1-3 1-1-1-1 1-2-1-2 1-2-2-3 1-2-1-3 0 0-2-4 2-2 1-1 1-2-1-3 1-3 0-3 2-5 0-1 2-1 0-2 1-2 2 1 1-4 0 3-8 1-5 0-2-1-2 1-2-2 1 0 2 1 3-1 5-1 3-3 6-1 1-3 2-1-1-2 1-1 2-1 1-1 2 1 1 1 1 2 1 3 2 0-3 1 1 0 2-1 3-3 7-4 12 3-9-2 0-1 4-1 1 0 1-1 2-1 2 0 1-3 3-2 1 0-187 5-4 13-7 4-1 7-2 4 1 8 2 21 5 15 3 18 4zM146 581l-1 3-1-1zM173 583l0-2 1 0 0 2zM167 581l0-2 3 1-1 2zM178 579l1-1 2 1-1 1zM168 579l-2-1 2-2 1 2zM174 577l1 1-2 0-1-1 0-1 1 0 0-2 2 1 0 1zM186 574l-2 1-1-1 1 2-1 1-3-2 0-1 2-4 3-1 2 4zM167 572l1 0-1 2zM179 571l0 2-1-1zM203 569l1 0-1 3zM169 569l0 1-1 1 0-2zM220 556l0-1 1 2z"/>
<path class="f" d="M502 507l1-2 1 0-1 2zM498 504l2-1 0-3-2-3 0-3 1-1 0 2 3 1-1 3-1 0 0 3 2 1 0 1-3 2z"/>
<circle class="g" cx="500.1" cy="557.8" r="79.8"/>
</svg>
